<svg xmlns="http://www.w3.org/2000/svg" version="1.1" xmlns:xlink="http://www.w3.org/1999/xlink" xmlns:svgjs="http://svgjs.dev/svgjs" width="1000" height="750" viewBox="0 0 1000 750"><rect width="1000" height="750" fill="#ffffff"></rect><g transform="matrix(0.834,0,0,0.834,82.49454807992504,258.7538402115383)"><svg viewBox="0 0 396 111" data-background-color="#ffffff" preserveAspectRatio="xMidYMid meet" height="280" width="1000" xmlns="http://www.w3.org/2000/svg" xmlns:xlink="http://www.w3.org/1999/xlink"><g id="tight-bounds" transform="matrix(1,0,0,1,0.23999875341689858,-0.24424573261711657)"><svg viewBox="0 0 395.52 111.48849146523422" height="111.48849146523422" width="395.52"><g><svg viewBox="0 0 563.3028986519407 158.78284387312547" height="111.48849146523422" width="395.52"><g><rect width="4.988538734159341" height="158.78284387312547" x="149.73535799589834" y="0" fill="#0af825" opacity="1" stroke-width="0" stroke="transparent" fill-opacity="1" class="rect-o-0" data-fill-palette-color="primary" rx="1%" id="o-0" data-palette-color="#0af825"></rect></g><g transform="matrix(1,0,0,1,167.78289865194077,0.39498219868936246)"><svg viewBox="0 0 395.52 157.99287947574675" height="157.99287947574675" width="395.52"><g><svg viewBox="0 0 395.52 157.99287947574675" height="157.99287947574675" width="395.52"><g><svg viewBox="0 0 395.52 119.9438838760298" height="119.9438838760298" width="395.52"><g transform="matrix(1,0,0,1,0,0)"><svg width="395.52" viewBox="3.950000762939453 -34.849998474121094 254.9499969482422 74.30000305175781" height="119.9438838760298" data-palette-color="#0af825"><svg></svg><svg></svg><g class="undefined-text-0" data-fill-palette-color="primary" id="text-0"><path xmlns="http://www.w3.org/2000/svg" d="M20.55-4.2l12.5-29.9h4.2v34.1h-3.7v-27.25l-11.4 27.25h-3.5l-10.9-27.15v27.15h-3.75v-34.1h4.6zM69.9 0h-3.5l-3.5-9.55h-14.15l-3.15 9.55h-3.75l12.1-34.1h3.5zM55.65-29.2l-5.75 16.55h11.85zM78.25 0h-3.75v-34.1h4l17.35 28.45v-28.45h3.75v34.1h-4l-17.35-28.35zM107.6 0v-34.1h11.4c3.067 0 5.517 0.933 7.35 2.8 1.833 1.867 2.75 4.45 2.75 7.75v0c0 3.267-0.96 5.833-2.88 7.7-1.913 1.867-4.453 2.8-7.62 2.8v0h-7.25v13.05zM111.35-16.15h7.15c2.233 0 3.933-0.627 5.1-1.88 1.167-1.247 1.75-3.087 1.75-5.52v0c0-2.433-0.583-4.283-1.75-5.55-1.167-1.267-2.867-1.9-5.1-1.9v0h-7.15zM147.75 0.8c-2.833 0-5.36-0.76-7.58-2.28-2.213-1.513-3.947-3.62-5.2-6.32-1.247-2.7-1.87-5.767-1.87-9.2v0c0-3.433 0.623-6.51 1.87-9.23 1.253-2.713 2.987-4.83 5.2-6.35 2.22-1.513 4.747-2.27 7.58-2.27v0c2.833 0 5.357 0.757 7.57 2.27 2.22 1.52 3.957 3.637 5.21 6.35 1.247 2.72 1.87 5.813 1.87 9.28v0c0 3.433-0.623 6.49-1.87 9.17-1.253 2.687-2.99 4.787-5.21 6.3-2.213 1.52-4.737 2.28-7.57 2.28zM147.75-2.65c2.067 0 3.923-0.61 5.57-1.83 1.653-1.213 2.947-2.913 3.88-5.1 0.933-2.18 1.4-4.653 1.4-7.42v0c0-2.767-0.467-5.25-1.4-7.45-0.933-2.2-2.227-3.917-3.88-5.15-1.647-1.233-3.503-1.85-5.57-1.85v0c-2.067 0-3.927 0.617-5.58 1.85-1.647 1.233-2.937 2.95-3.87 5.15-0.933 2.2-1.4 4.683-1.4 7.45v0c0 2.767 0.467 5.24 1.4 7.42 0.933 2.187 2.223 3.887 3.87 5.1 1.653 1.22 3.513 1.83 5.58 1.83zM194.7-5.15l7.35-28.95h3.55l-9.1 34.1h-3.9l-7.1-27.4-7.3 27.4h-3.85l-9.1-34.1h3.85l7.3 28.7 7.6-28.7h3.05zM229.9 0h-19.25v-34.1h19.1v3.15h-15.35v11.9h12v3.05h-12v12.9h15.5zM258.9 0h-3.95l-8.65-15.05h-6.75v15.05h-3.75v-34.1h11.4c2.067 0 3.883 0.4 5.45 1.2 1.567 0.8 2.767 1.923 3.6 3.37 0.833 1.453 1.25 3.113 1.25 4.98v0c0 2.267-0.683 4.207-2.05 5.82-1.367 1.62-3.183 2.713-5.45 3.28v0zM239.55-31v12.85h7.15c2.2 0 3.893-0.583 5.08-1.75 1.18-1.167 1.77-2.717 1.77-4.65v0c0-1.933-0.59-3.493-1.77-4.68-1.187-1.18-2.88-1.77-5.08-1.77v0z" fill="#0af825" fill-rule="nonzero" stroke="none" stroke-width="1" stroke-linecap="butt" stroke-linejoin="miter" stroke-miterlimit="10" stroke-dasharray="" stroke-dashoffset="0" font-family="none" font-weight="none" font-size="none" text-anchor="none" style="mix-blend-mode: normal" data-fill-palette-color="primary" opacity="1"></path><path xmlns="http://www.w3.org/2000/svg" d="M23.2 38.65h-19.25v-34.1h19.1v3.15h-15.35v11.9h12v3.05h-12v12.9h15.5zM45.7 34.45l12.5-29.9h4.2v34.1h-3.7v-27.25l-11.4 27.25h-3.5l-10.9-27.15v27.15h-3.75v-34.1h4.6zM70.4 38.65v-34.1h11.4c3.067 0 5.517 0.933 7.35 2.8 1.833 1.867 2.75 4.45 2.75 7.75v0c0 3.267-0.957 5.833-2.87 7.7-1.92 1.867-4.463 2.8-7.63 2.8v0h-7.25v13.05zM74.15 22.5h7.15c2.233 0 3.933-0.627 5.1-1.88 1.167-1.247 1.75-3.087 1.75-5.52v0c0-2.433-0.583-4.283-1.75-5.55-1.167-1.267-2.867-1.9-5.1-1.9v0h-7.15zM116.2 38.65h-19.1v-34.1h3.75v31h15.35zM132.35 39.45c-2.833 0-5.357-0.76-7.57-2.28-2.22-1.513-3.953-3.62-5.2-6.32-1.253-2.7-1.88-5.767-1.88-9.2v0c0-3.433 0.627-6.51 1.88-9.23 1.247-2.713 2.98-4.83 5.2-6.35 2.213-1.513 4.737-2.27 7.57-2.27v0c2.833 0 5.36 0.757 7.58 2.27 2.213 1.52 3.947 3.637 5.2 6.35 1.247 2.72 1.87 5.813 1.87 9.28v0c0 3.433-0.623 6.49-1.87 9.17-1.253 2.687-2.987 4.787-5.2 6.3-2.22 1.52-4.747 2.28-7.58 2.28zM132.35 36c2.067 0 3.927-0.61 5.58-1.83 1.647-1.213 2.937-2.913 3.87-5.1 0.933-2.18 1.4-4.653 1.4-7.42v0c0-2.767-0.467-5.25-1.4-7.45-0.933-2.2-2.223-3.917-3.87-5.15-1.653-1.233-3.513-1.85-5.58-1.85v0c-2.067 0-3.923 0.617-5.57 1.85-1.653 1.233-2.947 2.95-3.88 5.15-0.933 2.2-1.4 4.683-1.4 7.45v0c0 2.767 0.467 5.24 1.4 7.42 0.933 2.187 2.227 3.887 3.88 5.1 1.647 1.22 3.503 1.83 5.57 1.83zM161.05 21.55l9.2-17h3.45l-11.05 20.15v13.95h-3.7v-14.1l-10.95-20h3.75zM196.15 38.65h-19.25v-34.1h19.1v3.15h-15.35v11.9h12v3.05h-12v12.9h15.5zM221.3 38.65h-19.25v-34.1h19.1v3.15h-15.35v11.9h12v3.05h-12v12.9h15.5z" fill="#0af825" fill-rule="nonzero" stroke="none" stroke-width="1" stroke-linecap="butt" stroke-linejoin="miter" stroke-miterlimit="10" stroke-dasharray="" stroke-dashoffset="0" font-family="none" font-weight="none" font-size="none" text-anchor="none" style="mix-blend-mode: normal" data-fill-palette-color="primary" opacity="1"></path></g></svg></g></svg></g><g transform="matrix(1,0,0,1,0,133.00288579791288)"><svg viewBox="0 0 232.20979200000002 24.98999367783387" height="24.98999367783387" width="232.20979200000002"><g transform="matrix(1,0,0,1,0,0)"><svg width="232.20979200000002" viewBox="4.550000190734863 -35 435.760009765625 46.900001525878906" height="24.98999367783387" data-palette-color="#08f524"><path d="M15.1-25.55L15.1-25.55Q19.9-25.55 21.95-22.15L21.95-22.15Q26.2-25.55 29.8-25.55 33.4-25.55 35.68-23.53 37.95-21.5 37.95-17.65L37.95-17.65 37.95 0 34.3 0 34.3-16.1Q34.3-19.15 32.93-20.73 31.55-22.3 29.25-22.3L29.25-22.3Q26.1-22.3 22.9-19.8L22.9-19.8Q23.15-18.7 23.15-17.65L23.15-17.65 23.15 0 19.5 0 19.5-16.1Q19.5-19.15 18.13-20.73 16.75-22.3 14.45-22.3L14.45-22.3Q12.95-22.3 11.7-21.9 10.45-21.5 9.85-21.1 9.25-20.7 8.3-19.9L8.3-19.9 8.3 0 4.55 0 4.55-25 6.95-25 7.6-22.45Q8.85-23.5 9.53-23.98 10.2-24.45 11.75-25 13.3-25.55 15.1-25.55ZM57.85-14.95L57.85-14.95 59.9-14.95Q59.9-19.5 58.75-20.88 57.6-22.25 53.65-22.25 49.7-22.25 46.95-21.2L46.95-21.2 46.25-24.1Q50.45-25.5 54.95-25.5L54.95-25.5Q63.75-25.5 63.75-16.7L63.75-16.7 63.75 0 61.55 0 60.25-2.95Q57.95-1.05 56.27-0.38 54.6 0.3 52.4 0.3L52.4 0.3Q48.9 0.3 46.95-1.78 45-3.85 45-7.25L45-7.25Q45-14.95 57.85-14.95ZM59.95-6.55L59.95-11.8 57.7-11.8Q52.6-11.8 50.67-10.8 48.75-9.8 48.75-7.68 48.75-5.55 49.85-4.2 50.95-2.85 52.72-2.85 54.5-2.85 56.12-3.68 57.75-4.5 59.95-6.55L59.95-6.55ZM76.59-19.85L76.59-19.85 76.59 0 72.84 0 72.84-25 75.25-25 75.84-22.55Q77-23.45 77.72-23.95 78.45-24.45 80.05-24.98 81.65-25.5 83.45-25.5L83.45-25.5Q86.9-25.5 89.17-23.38 91.45-21.25 91.45-17.35L91.45-17.35 91.45 0 87.7 0 87.7-16.25Q87.7-22.3 82.65-22.3L82.65-22.3Q79.05-22.3 76.59-19.85ZM104.29-2.05L104.29 11.9 100.54 11.9 100.54-24.95 102.74-24.95 104.04-22.15Q106.14-23.75 107.97-24.63 109.79-25.5 111.99-25.5L111.99-25.5Q120.99-25.5 120.99-12.55L120.99-12.55Q120.99-5.2 117.79-2.3L117.79-2.3Q114.94 0.35 111.32 0.35 107.69 0.35 104.29-2.05L104.29-2.05ZM104.29-18.8L104.29-18.8 104.29-5.45Q105.29-4.25 106.99-3.55 108.69-2.85 110.24-2.85L110.24-2.85Q114.14-2.85 115.69-5.15 117.24-7.45 117.24-12.35 117.24-17.25 115.69-19.75 114.14-22.25 111.74-22.25L111.74-22.25Q110.14-22.25 108.57-21.6 106.99-20.95 106.22-20.38 105.44-19.8 104.29-18.8ZM143.29-12.33Q143.29-17.15 141.39-19.7 139.49-22.25 135.84-22.25 132.19-22.25 130.67-19.83 129.14-17.4 129.14-12.4L129.14-12.4Q129.14-2.95 136.09-2.95L136.09-2.95Q139.74-2.95 141.52-5.23 143.29-7.5 143.29-12.33ZM144.19-3.1Q141.34 0.3 136.14 0.3 130.94 0.3 128.17-3.08 125.39-6.45 125.39-12.53 125.39-18.6 128.06-22.05 130.74-25.5 135.92-25.5 141.09-25.5 144.06-22 147.04-18.5 147.04-12.5 147.04-6.5 144.19-3.1ZM161.34 0L157.04 0 149.74-25 153.64-25 159.19-3.95 164.34-25 168.04-25 173.59-3.75 178.69-25 182.59-25 175.74 0 171.34 0 166.19-19.75 161.34 0ZM205.03-11.7L205.03-11.7 189.08-11.7Q189.08-6.9 191.36-4.9 193.63-2.9 197.08-2.9L197.08-2.9Q198.83-2.9 199.53-3.08 200.23-3.25 200.86-3.43 201.48-3.6 201.73-3.7L201.73-3.7Q202.98-4.05 203.88-4.35L203.88-4.35 204.48-1.45Q199.48 0.3 196.69 0.3L196.69 0.3Q191.53 0.3 188.44-2.83 185.33-5.95 185.33-12.23 185.33-18.5 188.26-22 191.19-25.5 195.66-25.5 200.13-25.5 202.63-22.6 205.13-19.7 205.13-14.75L205.13-14.75Q205.13-13.4 205.03-11.7ZM189.33-14.55L189.33-14.55 201.53-14.55Q201.53-18.25 200.23-20.25 198.94-22.25 195.71-22.25 192.48-22.25 190.98-20.1 189.48-17.95 189.33-14.55ZM215.88-19.1L215.88-19.1 215.88 0 212.13 0 212.13-25 214.53-25 215.13-22.05Q217.53-23.95 219.13-24.73 220.73-25.5 222.78-25.5L222.78-25.5Q223.78-25.5 224.28-25.4L224.28-25.4 224.98-25.2 224.38-21.75Q223.48-22.05 221.93-22.05L221.93-22.05Q218.93-22.05 215.88-19.1ZM260.53-11.7L260.53-11.7 244.58-11.7Q244.58-6.9 246.85-4.9 249.13-2.9 252.58-2.9L252.58-2.9Q254.33-2.9 255.03-3.08 255.73-3.25 256.35-3.43 256.98-3.6 257.23-3.7L257.23-3.7Q258.48-4.05 259.38-4.35L259.38-4.35 259.98-1.45Q254.98 0.3 252.18 0.3L252.18 0.3Q247.03 0.3 243.93-2.83 240.83-5.95 240.83-12.23 240.83-18.5 243.75-22 246.68-25.5 251.15-25.5 255.63-25.5 258.13-22.6 260.63-19.7 260.63-14.75L260.63-14.75Q260.63-13.4 260.53-11.7ZM244.83-14.55L244.83-14.55 257.03-14.55Q257.03-18.25 255.73-20.25 254.43-22.25 251.2-22.25 247.98-22.25 246.48-20.1 244.98-17.95 244.83-14.55ZM278.18-25.55L278.18-25.55Q282.97-25.55 285.02-22.15L285.02-22.15Q289.27-25.55 292.88-25.55 296.47-25.55 298.75-23.53 301.02-21.5 301.02-17.65L301.02-17.65 301.02 0 297.38 0 297.38-16.1Q297.38-19.15 296-20.73 294.63-22.3 292.32-22.3L292.32-22.3Q289.18-22.3 285.97-19.8L285.97-19.8Q286.22-18.7 286.22-17.65L286.22-17.65 286.22 0 282.57 0 282.57-16.1Q282.57-19.15 281.2-20.73 279.82-22.3 277.52-22.3L277.52-22.3Q276.02-22.3 274.77-21.9 273.52-21.5 272.93-21.1 272.32-20.7 271.38-19.9L271.38-19.9 271.38 0 267.63 0 267.63-25 270.02-25 270.68-22.45Q271.93-23.5 272.6-23.98 273.27-24.45 274.82-25 276.38-25.55 278.18-25.55ZM313.87-2.05L313.87 11.9 310.12 11.9 310.12-24.95 312.32-24.95 313.62-22.15Q315.72-23.75 317.55-24.63 319.37-25.5 321.57-25.5L321.57-25.5Q330.57-25.5 330.57-12.55L330.57-12.55Q330.57-5.2 327.37-2.3L327.37-2.3Q324.52 0.35 320.9 0.35 317.27 0.35 313.87-2.05L313.87-2.05ZM313.87-18.8L313.87-18.8 313.87-5.45Q314.87-4.25 316.57-3.55 318.27-2.85 319.82-2.85L319.82-2.85Q323.72-2.85 325.27-5.15 326.82-7.45 326.82-12.35 326.82-17.25 325.27-19.75 323.72-22.25 321.32-22.25L321.32-22.25Q319.72-22.25 318.15-21.6 316.57-20.95 315.8-20.38 315.02-19.8 313.87-18.8ZM341.17 0L337.42 0 337.42-35 341.17-35 341.17 0ZM365.72-12.33Q365.72-17.15 363.82-19.7 361.92-22.25 358.27-22.25 354.62-22.25 353.09-19.83 351.57-17.4 351.57-12.4L351.57-12.4Q351.57-2.95 358.52-2.95L358.52-2.95Q362.17-2.95 363.94-5.23 365.72-7.5 365.72-12.33ZM366.62-3.1Q363.77 0.3 358.57 0.3 353.37 0.3 350.59-3.08 347.82-6.45 347.82-12.53 347.82-18.6 350.49-22.05 353.17-25.5 358.34-25.5 363.52-25.5 366.49-22 369.47-18.5 369.47-12.5 369.47-6.5 366.62-3.1ZM380.62 0.5L380.62 0.5 372.17-25 376.42-25 382.76-4 389.17-25 393.31-25 384.72 0Q383.06 4.85 381.06 7.5 379.06 10.15 375.92 11.8L375.92 11.8 374.51 9.2Q376.51 8.05 378.26 5.8 380.01 3.55 380.62 0.5ZM415.76-11.7L415.76-11.7 399.81-11.7Q399.81-6.9 402.09-4.9 404.36-2.9 407.81-2.9L407.81-2.9Q409.56-2.9 410.26-3.08 410.96-3.25 411.59-3.43 412.21-3.6 412.46-3.7L412.46-3.7Q413.71-4.05 414.61-4.35L414.61-4.35 415.21-1.45Q410.21 0.3 407.41 0.3L407.41 0.3Q402.26 0.3 399.16-2.83 396.06-5.95 396.06-12.23 396.06-18.5 398.99-22 401.91-25.5 406.39-25.5 410.86-25.5 413.36-22.6 415.86-19.7 415.86-14.75L415.86-14.75Q415.86-13.4 415.76-11.7ZM400.06-14.55L400.06-14.55 412.26-14.55Q412.26-18.25 410.96-20.25 409.66-22.25 406.44-22.25 403.21-22.25 401.71-20.1 400.21-17.95 400.06-14.55ZM440.21-11.7L440.21-11.7 424.26-11.7Q424.26-6.9 426.54-4.9 428.81-2.9 432.26-2.9L432.26-2.9Q434.01-2.9 434.71-3.08 435.41-3.25 436.04-3.43 436.66-3.6 436.91-3.7L436.91-3.7Q438.16-4.05 439.06-4.35L439.06-4.35 439.66-1.45Q434.66 0.3 431.86 0.3L431.86 0.3Q426.71 0.3 423.61-2.83 420.51-5.95 420.51-12.23 420.51-18.5 423.44-22 426.36-25.5 430.83-25.5 435.31-25.5 437.81-22.6 440.31-19.7 440.31-14.75L440.31-14.75Q440.31-13.4 440.21-11.7ZM424.51-14.55L424.51-14.55 436.71-14.55Q436.71-18.25 435.41-20.25 434.11-22.25 430.88-22.25 427.66-22.25 426.16-20.1 424.66-17.95 424.51-14.55Z" opacity="1" transform="matrix(1,0,0,1,0,0)" fill="#08f524" class="undefined-text-1" data-fill-palette-color="secondary" id="text-1"></path></svg></g></svg></g></svg></g></svg></g><g transform="matrix(1,0,0,1,0,0.39498219868936246)"><svg viewBox="0 0 136.67635607401525 157.99287947574675" height="157.99287947574675" width="136.67635607401525"><g><svg xmlns="http://www.w3.org/2000/svg" xmlns:xlink="http://www.w3.org/1999/xlink" version="1.1" x="0" y="0" viewBox="17.299999237060547 12.199999809265137 65.39999389648438 75.60000610351562" style="enable-background:new 0 0 100 100;" xml:space="preserve" height="157.99287947574675" width="136.67635607401525" class="icon-icon-0" data-fill-palette-color="accent" id="icon-0"><path d="M50 12.2L17.3 31.1v37.8L50 87.8l32.7-18.9V31.1L50 12.2zM32.1 37.4L50 16l17 21.4H32.1zM67.3 39.4L50 70.4l-18.2-31H67.3zM48.1 71l-27.7-4.5 9.8-25.9L48.1 71zM68.9 40.7l10.7 25.9-27.7 4.5L68.9 40.7zM69.2 37.1L52.6 16l27 15.6L69.2 37.1zM29.8 37.1l-9.4-5.5 26.8-15.5L29.8 37.1zM28.8 38.8l-9.5 25V33.3L28.8 38.8zM49 73.2v11.7L20.9 68.7 49 73.2zM51 73.2l28.1-4.5L51 84.9V73.2zM70.3 38.8l10.5-5.6v30.9L70.3 38.8z" fill="#0afb6f" data-fill-palette-color="accent"></path></svg></g></svg></g></svg></g><defs></defs></svg><rect width="395.52" height="111.48849146523422" fill="none" stroke="none" visibility="hidden"></rect></g></svg></g></svg>