<svg xmlns="http://www.w3.org/2000/svg" version="1.1" xmlns:xlink="http://www.w3.org/1999/xlink" xmlns:svgjs="http://svgjs.dev/svgjs" width="1000" height="146" viewBox="0 0 1000 146"><g transform="matrix(1,0,0,1,-0.6060606060606233,-0.3662162825389004)"><svg viewBox="0 0 396 58" data-background-color="#ffffff" preserveAspectRatio="xMidYMid meet" height="146" width="1000" xmlns="http://www.w3.org/2000/svg" xmlns:xlink="http://www.w3.org/1999/xlink"><g id="tight-bounds" transform="matrix(1,0,0,1,0.2400000000000091,0.1454831807346295)"><svg viewBox="0 0 395.52 57.70903363853075" height="57.70903363853075" width="395.52"><g><svg viewBox="0 0 468.6694209470433 68.38202715105089" height="57.70903363853075" width="395.52"><g><rect width="2.4627283850012036" height="59.37657929179527" x="401.9669329450293" y="4.5027239296278125" fill="#ffffff" opacity="1" stroke-width="0" stroke="transparent" fill-opacity="1" class="rect-in-0" data-fill-palette-color="primary" rx="1%" id="in-0" data-palette-color="#ffffff"></rect></g><g transform="matrix(1,0,0,1,0,9.450772203944084)"><svg viewBox="0 0 395.52 49.480482743162725" height="49.480482743162725" width="395.52"><g><svg viewBox="0 0 395.52 49.480482743162725" height="49.480482743162725" width="395.52"><g><svg viewBox="0 0 395.52 27.308718145975572" height="27.308718145975572" width="395.52"><g transform="matrix(1,0,0,1,0,0)"><svg width="395.52" viewBox="2.8 -35.2 519.9100000000001 35.900000000000006" height="27.308718145975572" data-palette-color="#ffffff"><path d="M31.5-34.5L38.8-34.5Q41.5-34.5 41.6-31.7L41.6-31.7 42.9 0 35.85 0 34.7-28.6 33.8-28.6 28.25-7.1Q27.8-4.7 25.25-4.7L25.25-4.7 20.45-4.7Q17.9-4.7 17.35-7.1L17.35-7.1 11.8-28.6 10.95-28.6 9.9 0 2.8 0 4.1-31.7Q4.2-34.5 6.95-34.5L6.95-34.5 14.1-34.5Q16.55-34.5 17.1-32.05L17.1-32.05 21.55-14.7Q21.85-13.5 22.05-12.28 22.25-11.05 22.5-9.8L22.5-9.8 23.15-9.8Q23.4-11.05 23.63-12.28 23.85-13.5 24.1-14.75L24.1-14.75 28.5-32.05Q29-34.5 31.5-34.5L31.5-34.5ZM58.45-34.5L65.7-34.5Q66.65-34.5 67.37-33.95 68.1-33.4 68.35-32.5L68.35-32.5 78.35 0 70.55 0 63.5-25.35Q63.3-26.2 63.1-27.08 62.9-27.95 62.75-28.75L62.75-28.75 61.4-28.75Q61.25-27.95 61.07-27.08 60.9-26.2 60.65-25.35L60.65-25.35 53.6 0 45.75 0 55.8-32.5Q56.05-33.4 56.77-33.95 57.5-34.5 58.45-34.5L58.45-34.5ZM53.1-14.85L71-14.85 71-9.1 53.1-9.1 53.1-14.85ZM103.85-34.5L111.05-34.5 111.05-2.75Q111.05 0 108.3 0L108.3 0 104.1 0Q102.85 0 102.2-0.58 101.55-1.15 101-2.3L101-2.3 91.45-20.4Q90.85-21.55 90.27-22.95 89.7-24.35 89.3-25.65L89.3-25.65 88.75-25.65Q88.9-24.3 89-22.93 89.1-21.55 89.1-20.2L89.1-20.2 89.1 0 81.85 0 81.85-31.75Q81.85-34.5 84.65-34.5L84.65-34.5 88.8-34.5Q90-34.5 90.62-33.93 91.25-33.35 91.85-32.2L91.85-32.2 101.1-14.65Q101.7-13.5 102.35-12.1 103-10.7 103.6-9.2L103.6-9.2 104.2-9.2Q104.05-10.7 103.97-12.13 103.9-13.55 103.9-14.95L103.9-14.95 103.85-34.5ZM131.19-35L131.19-35Q136.04-35 138.79-34 141.54-33 142.72-30.55 143.89-28.1 143.89-23.7L143.89-23.7Q143.89-19.3 142.77-16.85 141.64-14.4 139.09-13.43 136.54-12.45 132.19-12.45L132.19-12.45Q129.89-12.45 127.69-12.65 125.49-12.85 123.59-13.15 121.69-13.45 120.34-13.78 118.99-14.1 118.49-14.4L118.49-14.4 118.64-18.2Q121.59-18.2 124.77-18.2 127.94-18.2 131.04-18.2L131.04-18.2Q133.04-18.25 134.17-18.7 135.29-19.15 135.77-20.35 136.24-21.55 136.24-23.7L136.24-23.7Q136.24-25.9 135.77-27.1 135.29-28.3 134.17-28.78 133.04-29.25 131.04-29.25L131.04-29.25Q126.44-29.25 123.14-29.2 119.84-29.15 118.69-29L118.69-29 117.94-34.5Q120.04-34.75 121.89-34.85 123.74-34.95 125.92-34.98 128.09-35 131.19-35ZM117.94-34.5L125.59-34.5 125.59 0 117.94 0 117.94-34.5ZM162.59-35.2L162.59-35.2Q166.69-35.2 169.54-34.33 172.39-33.45 174.12-31.43 175.84-29.4 176.64-25.93 177.44-22.45 177.44-17.25L177.44-17.25Q177.44-12.05 176.64-8.58 175.84-5.1 174.12-3.08 172.39-1.05 169.54-0.18 166.69 0.7 162.59 0.7L162.59 0.7Q158.49 0.7 155.64-0.18 152.79-1.05 151.04-3.08 149.29-5.1 148.49-8.58 147.69-12.05 147.69-17.25L147.69-17.25Q147.69-22.45 148.49-25.93 149.29-29.4 151.04-31.43 152.79-33.45 155.64-34.33 158.49-35.2 162.59-35.2ZM162.59-29.15L162.59-29.15Q159.94-29.15 158.47-28.1 156.99-27.05 156.37-24.48 155.74-21.9 155.74-17.25L155.74-17.25Q155.74-12.65 156.37-10.05 156.99-7.45 158.47-6.4 159.94-5.35 162.59-5.35L162.59-5.35Q165.19-5.35 166.67-6.4 168.14-7.45 168.77-10.05 169.39-12.65 169.39-17.25L169.39-17.25Q169.39-21.9 168.77-24.48 168.14-27.05 166.67-28.1 165.19-29.15 162.59-29.15ZM219.44-34.5L227.14-34.5 221.49-2.1Q221.34-1.2 220.59-0.6 219.84 0 218.79 0L218.79 0 211.64 0Q210.64 0 209.86-0.6 209.09-1.2 208.94-2.15L208.94-2.15 205.09-24.6Q204.94-25.75 204.79-26.88 204.64-28 204.49-29.1L204.49-29.1 203.54-29.1Q203.44-28 203.29-26.85 203.14-25.7 202.99-24.6L202.99-24.6 199.14-2.15Q198.99-1.2 198.21-0.6 197.44 0 196.44 0L196.44 0 189.24 0Q188.24 0 187.46-0.6 186.69-1.2 186.54-2.1L186.54-2.1 180.89-34.5 188.59-34.5 192.19-10.5Q192.34-9.4 192.44-8.15 192.54-6.9 192.64-5.5L192.64-5.5 193.59-5.5Q193.79-6.7 194.01-8.03 194.24-9.35 194.39-10.5L194.39-10.5 198.19-32.15Q198.34-33.2 199.09-33.85 199.84-34.5 200.89-34.5L200.89-34.5 207.19-34.5Q208.24-34.5 208.96-33.85 209.69-33.2 209.84-32.15L209.84-32.15 213.69-10.45Q213.89-9.25 214.09-7.98 214.29-6.7 214.44-5.5L214.44-5.5 215.44-5.5Q215.54-6.7 215.66-8 215.79-9.3 215.89-10.4L215.89-10.4 219.44-34.5ZM238.99-34.65L238.99-34.65Q241.79-34.65 244.64-34.63 247.49-34.6 250.24-34.5 252.99-34.4 255.39-34.15L255.39-34.15 255.04-28.6 241.79-28.6Q240.54-28.6 239.91-27.95 239.29-27.3 239.29-26.05L239.29-26.05 239.29-8.45Q239.29-7.2 239.91-6.55 240.54-5.9 241.79-5.9L241.79-5.9 255.04-5.9 255.39-0.35Q252.99-0.15 250.24-0.03 247.49 0.1 244.64 0.13 241.79 0.15 238.99 0.15L238.99 0.15Q235.69 0.15 233.66-1.78 231.64-3.7 231.64-6.8L231.64-6.8 231.64-27.7Q231.64-30.85 233.66-32.75 235.69-34.65 238.99-34.65ZM232.54-15.25L232.54-20.65 253.19-20.65 253.19-15.25 232.54-15.25ZM274.08-35L274.08-35Q278.63-35 281.46-34.08 284.28-33.15 285.61-30.93 286.93-28.7 286.93-24.75L286.93-24.75Q286.93-22.35 286.31-20.53 285.68-18.7 284.23-17.6 282.78-16.5 280.28-16.2L280.28-16.2 280.28-15.95Q281.18-15.8 282.16-15.25 283.13-14.7 283.98-13.63 284.83-12.55 285.23-10.75L285.23-10.75 288.23 0 280.18 0 277.53-10.5Q277.08-12.2 276.21-12.85 275.33-13.5 273.78-13.5L273.78-13.5Q270.38-13.5 268.06-13.53 265.73-13.55 264.16-13.6 262.58-13.65 261.33-13.7L261.33-13.7 261.48-19.25 273.93-19.25Q275.93-19.25 277.11-19.68 278.28-20.1 278.76-21.2 279.23-22.3 279.23-24.25L279.23-24.25Q279.23-26.25 278.76-27.33 278.28-28.4 277.11-28.83 275.93-29.25 273.93-29.25L273.93-29.25Q269.23-29.25 265.98-29.2 262.73-29.15 261.53-29.05L261.53-29.05 260.78-34.5Q262.88-34.75 264.73-34.85 266.58-34.95 268.78-34.98 270.98-35 274.08-35ZM260.78-34.5L268.33-34.5 268.33 0 260.78 0 260.78-34.5ZM311.03-34.65L311.03-34.65Q313.83-34.65 316.68-34.63 319.53-34.6 322.28-34.5 325.03-34.4 327.43-34.15L327.43-34.15 327.08-28.6 313.83-28.6Q312.58-28.6 311.95-27.95 311.33-27.3 311.33-26.05L311.33-26.05 311.33-8.45Q311.33-7.2 311.95-6.55 312.58-5.9 313.83-5.9L313.83-5.9 327.08-5.9 327.43-0.35Q325.03-0.15 322.28-0.03 319.53 0.1 316.68 0.13 313.83 0.15 311.03 0.15L311.03 0.15Q307.73 0.15 305.7-1.78 303.68-3.7 303.68-6.8L303.68-6.8 303.68-27.7Q303.68-30.85 305.7-32.75 307.73-34.65 311.03-34.65ZM304.58-15.25L304.58-20.65 325.23-20.65 325.23-15.25 304.58-15.25ZM360.88-34.5L368.18-34.5Q370.88-34.5 370.98-31.7L370.98-31.7 372.28 0 365.23 0 364.08-28.6 363.18-28.6 357.63-7.1Q357.18-4.7 354.63-4.7L354.63-4.7 349.83-4.7Q347.28-4.7 346.73-7.1L346.73-7.1 341.18-28.6 340.33-28.6 339.28 0 332.18 0 333.48-31.7Q333.58-34.5 336.33-34.5L336.33-34.5 343.48-34.5Q345.93-34.5 346.48-32.05L346.48-32.05 350.93-14.7Q351.23-13.5 351.43-12.28 351.63-11.05 351.88-9.8L351.88-9.8 352.53-9.8Q352.78-11.05 353-12.28 353.23-13.5 353.48-14.75L353.48-14.75 357.88-32.05Q358.38-34.5 360.88-34.5L360.88-34.5ZM391.82-35L391.82-35Q396.67-35 399.42-34 402.17-33 403.35-30.55 404.52-28.1 404.52-23.7L404.52-23.7Q404.52-19.3 403.4-16.85 402.27-14.4 399.72-13.43 397.17-12.45 392.82-12.45L392.82-12.45Q390.52-12.45 388.32-12.65 386.12-12.85 384.22-13.15 382.32-13.45 380.97-13.78 379.62-14.1 379.12-14.4L379.12-14.4 379.27-18.2Q382.22-18.2 385.4-18.2 388.57-18.2 391.67-18.2L391.67-18.2Q393.67-18.25 394.8-18.7 395.92-19.15 396.4-20.35 396.87-21.55 396.87-23.7L396.87-23.7Q396.87-25.9 396.4-27.1 395.92-28.3 394.8-28.78 393.67-29.25 391.67-29.25L391.67-29.25Q387.07-29.25 383.77-29.2 380.47-29.15 379.32-29L379.32-29 378.57-34.5Q380.67-34.75 382.52-34.85 384.37-34.95 386.55-34.98 388.72-35 391.82-35ZM378.57-34.5L386.22-34.5 386.22 0 378.57 0 378.57-34.5ZM409.37-34.5L417.02-34.5 417.02-8.7Q417.02-7.45 417.72-6.8 418.42-6.15 419.72-6.15L419.72-6.15 431.77-6.15 432.12-0.4Q428.57 0 424.7 0.08 420.82 0.15 416.97 0.15L416.97 0.15Q413.22 0.15 411.3-1.88 409.37-3.9 409.37-7.05L409.37-7.05 409.37-34.5ZM449.47-35.2L449.47-35.2Q453.57-35.2 456.42-34.33 459.27-33.45 460.99-31.43 462.72-29.4 463.52-25.93 464.32-22.45 464.32-17.25L464.32-17.25Q464.32-12.05 463.52-8.58 462.72-5.1 460.99-3.08 459.27-1.05 456.42-0.18 453.57 0.7 449.47 0.7L449.47 0.7Q445.37 0.7 442.52-0.18 439.67-1.05 437.92-3.08 436.17-5.1 435.37-8.58 434.57-12.05 434.57-17.25L434.57-17.25Q434.57-22.45 435.37-25.93 436.17-29.4 437.92-31.43 439.67-33.45 442.52-34.33 445.37-35.2 449.47-35.2ZM449.47-29.15L449.47-29.15Q446.82-29.15 445.34-28.1 443.87-27.05 443.24-24.48 442.62-21.9 442.62-17.25L442.62-17.25Q442.62-12.65 443.24-10.05 443.87-7.45 445.34-6.4 446.82-5.35 449.47-5.35L449.47-5.35Q452.07-5.35 453.54-6.4 455.02-7.45 455.64-10.05 456.27-12.65 456.27-17.25L456.27-17.25Q456.27-21.9 455.64-24.48 455.02-27.05 453.54-28.1 452.07-29.15 449.47-29.15ZM488.22-34.5L496.17-34.5 484.51-10.95 477.31-10.95 465.62-34.5 473.56-34.5 479.37-21.8Q479.81-20.8 480.12-19.65 480.42-18.5 480.67-17.45L480.67-17.45 481.17-17.45Q481.47-18.5 481.76-19.65 482.06-20.8 482.47-21.8L482.47-21.8 488.22-34.5ZM477.06-15.6L484.72-15.6 484.72 0 477.06 0 477.06-15.6ZM506.31-34.65L506.31-34.65Q509.11-34.65 511.96-34.63 514.81-34.6 517.56-34.5 520.31-34.4 522.71-34.15L522.71-34.15 522.36-28.6 509.11-28.6Q507.86-28.6 507.24-27.95 506.61-27.3 506.61-26.05L506.61-26.05 506.61-8.45Q506.61-7.2 507.24-6.55 507.86-5.9 509.11-5.9L509.11-5.9 522.36-5.9 522.71-0.35Q520.31-0.15 517.56-0.03 514.81 0.1 511.96 0.13 509.11 0.15 506.31 0.15L506.31 0.15Q503.01 0.15 500.99-1.78 498.96-3.7 498.96-6.8L498.96-6.8 498.96-27.7Q498.96-30.85 500.99-32.75 503.01-34.65 506.31-34.65ZM499.86-15.25L499.86-20.65 520.51-20.65 520.51-15.25 499.86-15.25Z" opacity="1" transform="matrix(1,0,0,1,0,0)" fill="#ffffff" class="undefined-text-0" data-fill-palette-color="primary" id="text-0"></path></svg></g></svg></g><g transform="matrix(1,0,0,1,163.310208,33.7556510910049)"><svg viewBox="0 0 232.209792 15.724831652157823" height="15.724831652157823" width="232.209792"><g transform="matrix(1,0,0,1,0,0)"><svg width="232.209792" viewBox="4.35 -36.23 540.43 36.61" height="15.724831652157823" data-palette-color="#fffefe"><path d="M21.98-12.95L21.98-12.95Q22.33-12.35 22.59-11.69 22.85-11.03 23.1-10.35L23.1-10.35Q23.35-11.05 23.63-11.69 23.9-12.33 24.25-12.98L24.25-12.98 36.38-35Q36.7-35.58 37.05-35.7 37.4-35.83 38.05-35.83L38.05-35.83 41.63-35.83 41.63 0 37.38 0 37.38-26.33Q37.38-26.85 37.4-27.45 37.43-28.05 37.48-28.68L37.48-28.68 25.2-6.28Q24.58-5.15 23.45-5.15L23.45-5.15 22.75-5.15Q21.63-5.15 21-6.28L21-6.28 8.45-28.75Q8.53-28.1 8.56-27.48 8.6-26.85 8.6-26.33L8.6-26.33 8.6 0 4.35 0 4.35-35.83 7.93-35.83Q8.58-35.83 8.93-35.7 9.28-35.58 9.6-35L9.6-35 21.98-12.95ZM65.5-35.83L79.82 0 76.07 0Q75.42 0 75.02-0.33 74.62-0.65 74.42-1.15L74.42-1.15 71.07-9.8 55-9.8 51.65-1.15Q51.47-0.7 51.05-0.35 50.62 0 50 0L50 0 46.25 0 60.57-35.83 65.5-35.83ZM61.97-27.85L56.35-13.3 69.72-13.3 64.1-27.88Q63.55-29.23 63.02-31.25L63.02-31.25Q62.75-30.23 62.48-29.36 62.22-28.5 61.97-27.85L61.97-27.85ZM86.84-35.83L86.84-35.83Q87.5-35.83 87.81-35.66 88.12-35.5 88.52-35L88.52-35 109.27-8Q109.2-8.65 109.17-9.26 109.15-9.88 109.15-10.45L109.15-10.45 109.15-35.83 113.4-35.83 113.4 0 110.95 0Q110.37 0 109.98-0.2 109.59-0.4 109.22-0.88L109.22-0.88 88.5-27.85Q88.55-27.23 88.57-26.63 88.59-26.03 88.59-25.53L88.59-25.53 88.59 0 84.34 0 84.34-35.83 86.84-35.83ZM142.87-13.4L137.12-13.4 137.12 0 132.29 0 132.29-35.83 142.87-35.83Q146.27-35.83 148.78-35.04 151.29-34.25 152.94-32.8 154.59-31.35 155.4-29.3 156.22-27.25 156.22-24.73L156.22-24.73Q156.22-22.23 155.34-20.15 154.47-18.07 152.78-16.57 151.09-15.08 148.59-14.24 146.09-13.4 142.87-13.4L142.87-13.4ZM137.12-32L137.12-17.25 142.87-17.25Q144.94-17.25 146.53-17.8 148.12-18.35 149.19-19.34 150.27-20.33 150.82-21.7 151.37-23.08 151.37-24.73L151.37-24.73Q151.37-28.15 149.25-30.08 147.14-32 142.87-32L142.87-32 137.12-32ZM195.61-17.9L195.61-17.9Q195.61-13.88 194.34-10.51 193.06-7.15 190.74-4.73 188.41-2.3 185.15-0.96 181.89 0.38 177.94 0.38L177.94 0.38Q173.99 0.38 170.74-0.96 167.49-2.3 165.16-4.73 162.84-7.15 161.56-10.51 160.29-13.88 160.29-17.9L160.29-17.9Q160.29-21.93 161.56-25.29 162.84-28.65 165.16-31.09 167.49-33.52 170.74-34.88 173.99-36.23 177.94-36.23L177.94-36.23Q181.89-36.23 185.15-34.88 188.41-33.52 190.74-31.09 193.06-28.65 194.34-25.29 195.61-21.93 195.61-17.9ZM190.64-17.9L190.64-17.9Q190.64-21.2 189.74-23.83 188.84-26.45 187.19-28.26 185.54-30.08 183.19-31.05 180.84-32.02 177.94-32.02L177.94-32.02Q175.06-32.02 172.71-31.05 170.36-30.08 168.7-28.26 167.04-26.45 166.14-23.83 165.24-21.2 165.24-17.9L165.24-17.9Q165.24-14.6 166.14-11.99 167.04-9.38 168.7-7.56 170.36-5.75 172.71-4.79 175.06-3.83 177.94-3.83L177.94-3.83Q180.84-3.83 183.19-4.79 185.54-5.75 187.19-7.56 188.84-9.38 189.74-11.99 190.64-14.6 190.64-17.9ZM209.41 0L198.24-35.83 202.26-35.83Q202.91-35.83 203.34-35.5 203.76-35.18 203.91-34.68L203.91-34.68 211.31-9.78Q211.51-9.1 211.67-8.33 211.84-7.55 211.99-6.7L211.99-6.7Q212.16-7.55 212.34-8.34 212.51-9.13 212.74-9.78L212.74-9.78 221.16-34.68Q221.31-35.1 221.75-35.46 222.19-35.83 222.81-35.83L222.81-35.83 224.21-35.83Q224.86-35.83 225.27-35.5 225.69-35.18 225.86-34.68L225.86-34.68 234.24-9.78Q234.69-8.47 235.04-6.8L235.04-6.8Q235.19-7.63 235.31-8.38 235.44-9.13 235.64-9.78L235.64-9.78 243.06-34.68Q243.19-35.13 243.62-35.48 244.06-35.83 244.69-35.83L244.69-35.83 248.46-35.83 237.29 0 232.94 0 223.86-27.33Q223.59-28.1 223.36-29.13L223.36-29.13Q223.24-28.63 223.12-28.16 223.01-27.7 222.89-27.33L222.89-27.33 213.76 0 209.41 0ZM253.18-35.83L275.26-35.83 275.26-31.88 258.06-31.88 258.06-19.98 271.98-19.98 271.98-16.18 258.06-16.18 258.06-3.95 275.26-3.95 275.26 0 253.18 0 253.18-35.83ZM291.23-14.95L287.56-14.95 287.56 0 282.73 0 282.73-35.83 292.86-35.83Q296.26-35.83 298.73-35.14 301.21-34.45 302.82-33.15 304.43-31.85 305.21-30.01 305.98-28.18 305.98-25.9L305.98-25.9Q305.98-24 305.38-22.35 304.78-20.7 303.64-19.39 302.51-18.07 300.87-17.15 299.23-16.23 297.16-15.75L297.16-15.75Q298.06-15.23 298.76-14.23L298.76-14.23 309.21 0 304.91 0Q303.58 0 302.96-1.03L302.96-1.03 293.66-13.83Q293.23-14.43 292.73-14.69 292.23-14.95 291.23-14.95L291.23-14.95ZM287.56-32L287.56-18.48 292.63-18.48Q294.76-18.48 296.37-18.99 297.98-19.5 299.07-20.44 300.16-21.38 300.71-22.68 301.26-23.98 301.26-25.55L301.26-25.55Q301.26-28.75 299.14-30.38 297.03-32 292.86-32L292.86-32 287.56-32ZM324.08-35.83L346.15-35.83 346.15-31.88 328.95-31.88 328.95-19.98 342.88-19.98 342.88-16.18 328.95-16.18 328.95-3.95 346.15-3.95 346.15 0 324.08 0 324.08-35.83ZM370.75-12.95L370.75-12.95Q371.1-12.35 371.36-11.69 371.62-11.03 371.87-10.35L371.87-10.35Q372.12-11.05 372.4-11.69 372.67-12.33 373.02-12.98L373.02-12.98 385.15-35Q385.47-35.58 385.82-35.7 386.17-35.83 386.82-35.83L386.82-35.83 390.4-35.83 390.4 0 386.15 0 386.15-26.33Q386.15-26.85 386.17-27.45 386.2-28.05 386.25-28.68L386.25-28.68 373.97-6.28Q373.35-5.15 372.22-5.15L372.22-5.15 371.52-5.15Q370.4-5.15 369.77-6.28L369.77-6.28 357.22-28.75Q357.3-28.1 357.34-27.48 357.37-26.85 357.37-26.33L357.37-26.33 357.37 0 353.12 0 353.12-35.83 356.7-35.83Q357.35-35.83 357.7-35.7 358.05-35.58 358.37-35L358.37-35 370.75-12.95ZM410.2-13.4L404.45-13.4 404.45 0 399.62 0 399.62-35.83 410.2-35.83Q413.6-35.83 416.11-35.04 418.62-34.25 420.27-32.8 421.92-31.35 422.73-29.3 423.55-27.25 423.55-24.73L423.55-24.73Q423.55-22.23 422.67-20.15 421.8-18.07 420.11-16.57 418.42-15.08 415.92-14.24 413.42-13.4 410.2-13.4L410.2-13.4ZM404.45-32L404.45-17.25 410.2-17.25Q412.27-17.25 413.86-17.8 415.45-18.35 416.52-19.34 417.6-20.33 418.15-21.7 418.7-23.08 418.7-24.73L418.7-24.73Q418.7-28.15 416.58-30.08 414.47-32 410.2-32L410.2-32 404.45-32ZM434.52-35.83L434.52-4.08 450.02-4.08 450.02 0 429.67 0 429.67-35.83 434.52-35.83ZM486.64-17.9L486.64-17.9Q486.64-13.88 485.37-10.51 484.09-7.15 481.77-4.73 479.44-2.3 476.18-0.96 472.92 0.38 468.97 0.38L468.97 0.38Q465.02 0.38 461.77-0.96 458.52-2.3 456.19-4.73 453.87-7.15 452.59-10.51 451.32-13.88 451.32-17.9L451.32-17.9Q451.32-21.93 452.59-25.29 453.87-28.65 456.19-31.09 458.52-33.52 461.77-34.88 465.02-36.23 468.97-36.23L468.97-36.23Q472.92-36.23 476.18-34.88 479.44-33.52 481.77-31.09 484.09-28.65 485.37-25.29 486.64-21.93 486.64-17.9ZM481.67-17.9L481.67-17.9Q481.67-21.2 480.77-23.83 479.87-26.45 478.22-28.26 476.57-30.08 474.22-31.05 471.87-32.02 468.97-32.02L468.97-32.02Q466.09-32.02 463.74-31.05 461.39-30.08 459.73-28.26 458.07-26.45 457.17-23.83 456.27-21.2 456.27-17.9L456.27-17.9Q456.27-14.6 457.17-11.99 458.07-9.38 459.73-7.56 461.39-5.75 463.74-4.79 466.09-3.83 468.97-3.83L468.97-3.83Q471.87-3.83 474.22-4.79 476.57-5.75 478.22-7.56 479.87-9.38 480.77-11.99 481.67-14.6 481.67-17.9ZM518.21-35.83L505.06-14.25 505.06 0 500.24 0 500.24-14.25 487.11-35.83 491.36-35.83Q492.01-35.83 492.39-35.5 492.76-35.18 493.04-34.7L493.04-34.7 501.24-20.78Q501.74-19.9 502.08-19.13 502.41-18.35 502.69-17.6L502.69-17.6Q502.96-18.38 503.29-19.15 503.61-19.93 504.11-20.78L504.11-20.78 512.29-34.7Q512.51-35.1 512.9-35.46 513.29-35.83 513.91-35.83L513.91-35.83 518.21-35.83ZM522.71-35.83L544.78-35.83 544.78-31.88 527.59-31.88 527.59-19.98 541.51-19.98 541.51-16.18 527.59-16.18 527.59-3.95 544.78-3.95 544.78 0 522.71 0 522.71-35.83Z" opacity="1" transform="matrix(1,0,0,1,0,0)" fill="#fffefe" class="undefined-text-1" data-fill-palette-color="secondary" id="text-1"></path></svg></g></svg></g></svg></g></svg></g><g transform="matrix(1,0,0,1,410.87659427505986,0)"><svg viewBox="0 0 57.792826671983434 68.38202715105089" height="68.38202715105089" width="57.792826671983434"><g><svg xmlns="http://www.w3.org/2000/svg" xmlns:xlink="http://www.w3.org/1999/xlink" version="1.1" x="0" y="0" viewBox="10.485378676515781 0.0000265983712608997 84.51462132348422 99.99997340162874" enable-background="new 0 0 100 100" xml:space="preserve" height="68.38202715105089" width="57.792826671983434" class="icon-icon-0" data-fill-palette-color="accent" id="icon-0"><g fill="#fdc500" data-fill-palette-color="accent"><g fill="#fdc500" data-fill-palette-color="accent"><path d="M95 90.109L80.738 73.045 79.667 73.7l-3.158-6.585 2.812 1.043c0 0 4.121-12.88 7.975-23.87 4.203-11.984 4.85-34.483-9.95-36.817C68.612-6.565 37.083 2.526 27.479 7.753c-7.331 3.989-9.989 1.826-11.735 0.641-1.055 6.303 5.708 10.152 5.708 10.152s-4.126 10.644-4.126 13.815 2.222 4.583 0.002 7.437c-2.22 2.854-7.929 12.686-6.661 13.954 1.269 1.271 6.661 2.855 6.661 2.855l3.806 12.37c0 0-3.17 7.294-1.902 8.562s3.27 4.868 6.659 4.44c4.452-0.562 16.492-2.537 16.492-2.537l5.891 13.423-2.956 1.806L43.657 100H82.24L95 90.109z" fill="#fdc500" data-fill-palette-color="accent"></path></g></g></svg></g></svg></g></svg></g><defs></defs></svg><rect width="395.52" height="57.70903363853075" fill="none" stroke="none" visibility="hidden"></rect></g></svg></g></svg>