<svg xmlns="http://www.w3.org/2000/svg" version="1.1" xmlns:xlink="http://www.w3.org/1999/xlink" xmlns:svgjs="http://svgjs.dev/svgjs" width="1000" height="750" viewBox="0 0 1000 750"><rect width="1000" height="750" fill="#ffffff"></rect><g transform="matrix(0.834,0,0,0.834,82.49454545454546,284.1967400803973)"><svg viewBox="0 0 396 87" data-background-color="#ffffff" preserveAspectRatio="xMidYMid meet" height="219" width="1000" xmlns="http://www.w3.org/2000/svg" xmlns:xlink="http://www.w3.org/1999/xlink"><g id="tight-bounds" transform="matrix(1,0,0,1,0.2400000000000091,-0.24756844932034028)"><svg viewBox="0 0 395.52 87.4951368986407" height="87.4951368986407" width="395.52"><g><svg viewBox="0 0 557.908886694315 123.41806841193193" height="87.4951368986407" width="395.52"><g><rect width="4.2294768397425555" height="123.41806841193193" x="147.08748095472293" y="0" fill="#0be683" opacity="1" stroke-width="0" stroke="transparent" fill-opacity="1" class="rect-o-0" data-fill-palette-color="primary" rx="1%" id="o-0" data-palette-color="#0be683"></rect></g><g transform="matrix(1,0,0,1,162.3888866943151,0.30701012042768383)"><svg viewBox="0 0 395.5199999999999 122.80404817107656" height="122.80404817107656" width="395.5199999999999"><g><svg viewBox="0 0 395.5199999999999 122.80404817107656" height="122.80404817107656" width="395.5199999999999"><g><svg viewBox="0 0 395.5199999999999 101.23428571428569" height="101.23428571428569" width="395.5199999999999"><g transform="matrix(1,0,0,1,0,0)"><svg width="395.5199999999999" viewBox="1.4999966621398926 -37.30000305175781 319.20001220703125 78.70000457763672" height="101.23428571428569" data-palette-color="#0be683"><svg></svg><svg></svg><g class="undefined-text-0" data-fill-palette-color="primary" id="text-0"><path xmlns="http://www.w3.org/2000/svg" d="M45.65-0.5v0c-1.233 0.567-2.573 0.85-4.02 0.85-1.453 0-2.597-0.377-3.43-1.13-0.833-0.747-1.3-2.07-1.4-3.97v0l-1.4-25.3-8.75 27.75c-0.5 1.533-1.567 2.3-3.2 2.3v0c-0.933-0.033-1.583-0.233-1.95-0.6-0.367-0.367-0.667-0.95-0.9-1.75v0l-9.05-27.75-1.45 25.2c-0.133 1.867-0.51 3.24-1.13 4.12-0.613 0.887-1.703 1.33-3.27 1.33-1.567 0-2.967-0.65-4.2-1.95v0c0.967-0.9 1.5-2.233 1.6-4v0l2-25.55c0-0.2 0-0.417 0-0.65v0c0-1.567-0.333-2.817-1-3.75v0c2.4-1.3 4.967-1.95 7.7-1.95 2.733 0 4.657 0.65 5.77 1.95 1.12 1.3 2.097 3.5 2.93 6.6v0l4 14.35 3.9-14.1c0.967-3.5 2.193-5.84 3.68-7.02 1.48-1.187 3.413-1.78 5.8-1.78 2.38 0 4.42 0.367 6.12 1.1v0c-0.6 1-0.9 2.233-0.9 3.7v0c0 0.3 0.017 0.633 0.05 1v0l1.5 25.9c0.067 2.333 0.4 4.033 1 5.1zM67.05-24.65l-4.15 12.85h7.8zM84.6-2.3c-0.4 0.867-1.073 1.557-2.02 2.07-0.953 0.52-2.08 0.78-3.38 0.78-1.3 0-2.367-0.327-3.2-0.98-0.833-0.647-1.583-1.803-2.25-3.47v0l-1.2-3.1h-11.35l-1.25 3.5c-0.933 2.7-2.517 4.05-4.75 4.05v0c-1.067 0-2.077-0.243-3.03-0.73-0.947-0.48-1.57-1.087-1.87-1.82v0c0.567-0.233 1.043-0.627 1.43-1.18 0.38-0.547 0.803-1.403 1.27-2.57v0l10.25-26.45c-0.6-1.3-1.25-2.2-1.95-2.7v0c1.033-1.6 2.633-2.4 4.8-2.4v0c1.667 0 2.883 0.45 3.65 1.35 0.767 0.9 1.583 2.517 2.45 4.85v0l8.95 24.2c0.867 2.367 2.017 3.9 3.45 4.6zM91.1-5.4v0-26.3c0-1.733-0.55-2.883-1.65-3.45v0c1.2-1.433 3-2.15 5.4-2.15v0c2.933 0 5.283 1.467 7.05 4.4v0l13.8 22.9v-21.7c0-1.733-0.55-2.883-1.65-3.45v0c1.2-1.433 2.717-2.15 4.55-2.15v0c3.333 0 5 1.967 5 5.9v0 26.25c0 1.9 0.317 3.317 0.95 4.25v0c-1.033 0.967-2.533 1.45-4.5 1.45-1.967 0-3.7-0.593-5.2-1.78-1.5-1.18-3.117-3.187-4.85-6.02v0l-11-18.45v20.55c0 1.8 0.533 2.983 1.6 3.55v0c-1.267 1.433-2.767 2.15-4.5 2.15-1.733 0-3-0.483-3.8-1.45-0.8-0.967-1.2-2.467-1.2-4.5zM143.05-32.15v0h-2.85v14.45h2.85c2.3 0 4.077-0.66 5.33-1.98 1.247-1.313 1.87-3.08 1.87-5.3 0-2.213-0.623-3.963-1.87-5.25-1.253-1.28-3.03-1.92-5.33-1.92zM135.2-36.8v0h9.35c0.1 0 0.2 0 0.3 0v0c5.5 0 9.583 1.7 12.25 5.1v0c1.467 1.867 2.2 4.117 2.2 6.75 0 2.633-0.733 4.867-2.2 6.7v0c-2.7 3.433-6.883 5.15-12.55 5.15v0h-4.4v7.95c0 1.8 0.55 2.983 1.65 3.55v0c-1.267 1.433-2.8 2.15-4.6 2.15v0c-3.267 0-4.9-1.983-4.9-5.95v0-25.75c0-1.7-0.567-2.85-1.7-3.45v0c1.233-1.467 2.767-2.2 4.6-2.2zM180.6-4.4v0c2.933 0 5-1.3 6.2-3.9v0c0.933-2.1 1.4-4.733 1.4-7.9v0c0-0.7-0.017-1.433-0.05-2.2v0c-0.233-4.2-1.1-7.583-2.6-10.15-1.5-2.567-3.717-3.85-6.65-3.85v0c-5.067 0-7.6 3.983-7.6 11.95v0c0 6.7 1.433 11.4 4.3 14.1v0c1.367 1.3 3.033 1.95 5 1.95zM192.55-31.78c1.267 1.753 2.21 3.737 2.83 5.95 0.613 2.22 0.92 4.687 0.92 7.4 0 2.72-0.307 5.197-0.92 7.43-0.62 2.233-1.563 4.233-2.83 6-1.267 1.767-2.99 3.133-5.17 4.1-2.187 0.967-4.73 1.45-7.63 1.45v0c-5.533 0-9.673-1.76-12.42-5.28-2.753-3.513-4.13-8.07-4.13-13.67 0-5.6 1.377-10.15 4.13-13.65 2.747-3.5 6.887-5.25 12.42-5.25v0c2.933 0 5.483 0.483 7.65 1.45 2.167 0.967 3.883 2.323 5.15 4.07zM243.6-32.8v0c0-1.367-0.367-2.417-1.1-3.15v0c1.233-0.9 2.7-1.35 4.4-1.35v0c2.833 0 4.25 1.517 4.25 4.55v0c0 0.467-0.1 1.3-0.3 2.5v0l-6.15 24.25c-0.867 4.367-3 6.55-6.4 6.55v0c-3.467 0-5.667-2.183-6.6-6.55v0l-5.15-19.75-5.35 19.75c-0.533 2.433-1.323 4.133-2.37 5.1-1.053 0.967-2.487 1.45-4.3 1.45-1.82 0-3.22-0.483-4.2-1.45-0.987-0.967-1.73-2.667-2.23-5.1v0l-5.8-24.8c-0.533-2.267-1.333-3.733-2.4-4.4v0c1.367-1.4 2.917-2.1 4.65-2.1 1.733 0 3.077 0.44 4.03 1.32 0.947 0.887 1.62 2.447 2.02 4.68v0l4.3 23.45 6.7-24.75c0.5-1.733 1.183-2.95 2.05-3.65 0.867-0.7 2.033-1.05 3.5-1.05v0c3.033 0 4.917 1.567 5.65 4.7v0l5.85 25.15 4.75-23.5c0.133-0.667 0.2-1.283 0.2-1.85zM268.85-6.4v0h8.05c2.367 0 4.467-0.667 6.3-2v0c1.067 0.9 1.6 2.083 1.6 3.55 0 1.467-0.533 2.64-1.6 3.52-1.067 0.887-2.667 1.33-4.8 1.33v0h-10.85c-3.333 0-5.773-0.717-7.32-2.15-1.553-1.433-2.33-3.7-2.33-6.8v0-22.2c0-1.7-0.567-2.85-1.7-3.45v0c1.233-1.467 2.75-2.2 4.55-2.2v0h16.7c2.633 0 4.517 0.343 5.65 1.03 1.133 0.68 1.7 1.687 1.7 3.02 0 1.333-0.533 2.45-1.6 3.35v0c-1.6-0.633-3.7-0.95-6.3-0.95v0h-11.15v7.5h6.9c2.667 0 4.56 0.283 5.68 0.85 1.113 0.567 1.67 1.523 1.67 2.87 0 1.353-0.533 2.447-1.6 3.28v0c-1.2-0.4-3.3-0.6-6.3-0.6v0h-6.35v6.5c0 2.367 1.033 3.55 3.1 3.55zM302.45-31.2h-2.85v11.75h2.85c2.333 0 4.117-0.51 5.35-1.53 1.233-1.013 1.85-2.463 1.85-4.35 0-1.88-0.617-3.33-1.85-4.35-1.233-1.013-3.017-1.52-5.35-1.52zM320.7-2.8v0c-1.133 2.233-2.933 3.35-5.4 3.35v0c-1.3 0-2.483-0.333-3.55-1-1.067-0.667-2.217-1.983-3.45-3.95v0l-5.8-9.45h-2.95v8.7c0 1.8 0.55 2.983 1.65 3.55v0c-1.267 1.433-2.8 2.15-4.6 2.15v0c-3.267 0-4.9-1.983-4.9-5.95v0-25.75c0-1.7-0.567-2.85-1.7-3.45v0c1.233-1.467 2.767-2.2 4.6-2.2v0h8.3c4.033 0 7.507 1.01 10.42 3.03 2.92 2.013 4.38 4.837 4.38 8.47v0c0 2.367-0.65 4.39-1.95 6.07-1.3 1.687-3.05 2.997-5.25 3.93v0l5.9 8.75c1.2 1.633 2.633 2.883 4.3 3.75z" fill="#0be683" fill-rule="nonzero" stroke="none" stroke-width="1" stroke-linecap="butt" stroke-linejoin="miter" stroke-miterlimit="10" stroke-dasharray="" stroke-dashoffset="0" font-family="none" font-weight="none" font-size="none" text-anchor="none" style="mix-blend-mode: normal" data-fill-palette-color="primary" opacity="1"></path><path xmlns="http://www.w3.org/2000/svg" d="M16.85 34.45v0h8.05c2.367 0 4.467-0.667 6.3-2v0c1.067 0.9 1.6 2.083 1.6 3.55 0 1.467-0.533 2.64-1.6 3.52-1.067 0.887-2.667 1.33-4.8 1.33v0h-10.85c-3.333 0-5.777-0.717-7.33-2.15-1.547-1.433-2.32-3.7-2.32-6.8v0-22.2c0-1.7-0.567-2.85-1.7-3.45v0c1.233-1.467 2.75-2.2 4.55-2.2v0h16.7c2.633 0 4.517 0.343 5.65 1.03 1.133 0.68 1.7 1.687 1.7 3.02 0 1.333-0.533 2.45-1.6 3.35v0c-1.6-0.633-3.7-0.95-6.3-0.95v0h-11.15v7.5h6.9c2.667 0 4.56 0.283 5.68 0.85 1.113 0.567 1.67 1.523 1.67 2.87 0 1.353-0.533 2.447-1.6 3.28v0c-1.2-0.4-3.3-0.6-6.3-0.6v0h-6.35v6.5c0 2.367 1.033 3.55 3.1 3.55zM81.45 40.35v0c-1.233 0.567-2.573 0.85-4.02 0.85-1.453 0-2.597-0.377-3.43-1.13-0.833-0.747-1.3-2.07-1.4-3.97v0l-1.4-25.3-8.75 27.75c-0.5 1.533-1.567 2.3-3.2 2.3v0c-0.933-0.033-1.583-0.233-1.95-0.6-0.367-0.367-0.667-0.95-0.9-1.75v0l-9.05-27.75-1.45 25.2c-0.133 1.867-0.507 3.24-1.12 4.12-0.62 0.887-1.713 1.33-3.28 1.33-1.567 0-2.967-0.65-4.2-1.95v0c0.967-0.9 1.5-2.233 1.6-4v0l2-25.55c0-0.2 0-0.417 0-0.65v0c0-1.567-0.333-2.817-1-3.75v0c2.4-1.3 4.967-1.95 7.7-1.95 2.733 0 4.66 0.65 5.78 1.95 1.113 1.3 2.087 3.5 2.92 6.6v0l4 14.35 3.9-14.1c0.967-3.5 2.193-5.84 3.68-7.02 1.48-1.187 3.413-1.78 5.8-1.78 2.38 0 4.42 0.367 6.12 1.1v0c-0.6 1-0.9 2.233-0.9 3.7v0c0 0.3 0.017 0.633 0.05 1v0l1.5 25.9c0.067 2.333 0.4 4.033 1 5.1zM98.95 8.7v0h-2.85v14.45h2.85c2.3 0 4.077-0.66 5.33-1.98 1.247-1.313 1.87-3.08 1.87-5.3 0-2.213-0.623-3.963-1.87-5.25-1.253-1.28-3.03-1.92-5.33-1.92zM91.1 4.05v0h9.35c0.1 0 0.2 0 0.3 0v0c5.5 0 9.583 1.7 12.25 5.1v0c1.467 1.867 2.2 4.117 2.2 6.75 0 2.633-0.733 4.867-2.2 6.7v0c-2.7 3.433-6.883 5.15-12.55 5.15v0h-4.4v7.95c0 1.8 0.55 2.983 1.65 3.55v0c-1.267 1.433-2.8 2.15-4.6 2.15v0c-3.267 0-4.9-1.983-4.9-5.95v0-25.75c0-1.7-0.567-2.85-1.7-3.45v0c1.233-1.467 2.767-2.2 4.6-2.2zM121.3 32.5v0-23.35c0-1.733-0.55-2.883-1.65-3.45v0c1.2-1.433 2.717-2.15 4.55-2.15v0c3.333 0 5 1.967 5 5.9v0 22.05c0 2.367 1.033 3.55 3.1 3.55v0h5.15c2.367 0 4.167-0.667 5.4-2v0c0.8 0.567 1.2 1.507 1.2 2.82 0 1.32-0.523 2.48-1.57 3.48-1.053 1-2.58 1.5-4.58 1.5v0h-7.5c-3.333 0-5.683-0.617-7.05-1.85-1.367-1.233-2.05-3.4-2.05-6.5zM165.95 36.45v0c2.933 0 5-1.3 6.2-3.9v0c0.933-2.1 1.4-4.733 1.4-7.9v0c0-0.7-0.017-1.433-0.05-2.2v0c-0.233-4.2-1.1-7.583-2.6-10.15-1.5-2.567-3.717-3.85-6.65-3.85v0c-5.067 0-7.6 3.983-7.6 11.95v0c0 6.7 1.433 11.4 4.3 14.1v0c1.367 1.3 3.033 1.95 5 1.95zM177.9 9.07c1.267 1.753 2.207 3.737 2.82 5.95 0.62 2.22 0.93 4.687 0.93 7.4 0 2.72-0.31 5.197-0.93 7.43-0.613 2.233-1.553 4.233-2.82 6-1.267 1.767-2.993 3.133-5.18 4.1-2.18 0.967-4.72 1.45-7.62 1.45v0c-5.533 0-9.673-1.76-12.42-5.28-2.753-3.513-4.13-8.07-4.13-13.67 0-5.6 1.377-10.15 4.13-13.65 2.747-3.5 6.887-5.25 12.42-5.25v0c2.933 0 5.483 0.483 7.65 1.45 2.167 0.967 3.883 2.323 5.15 4.07zM206.2 40.35v0c-1.233 0.567-2.577 0.85-4.03 0.85-1.447 0-2.58-0.5-3.4-1.5-0.813-1-1.22-2.483-1.22-4.45v0l0.05-10.35-9.25-15.2c-0.833-1.333-1.867-2.05-3.1-2.15v0c0.867-2.667 2.55-4 5.05-4v0c1.267 0 2.357 0.407 3.27 1.22 0.92 0.82 1.863 2.03 2.83 3.63v0l5.75 9.45 5.6-7.25c0.867-1.133 1.3-2.183 1.3-3.15 0-0.967-0.4-1.867-1.2-2.7v0c1.6-0.8 3.11-1.2 4.53-1.2 1.413 0 2.587 0.367 3.52 1.1 0.933 0.733 1.4 1.767 1.4 3.1 0 1.333-0.617 2.767-1.85 4.3v0l-10.05 12.8-0.05 11.25c0 1.8 0.283 3.217 0.85 4.25zM234.55 34.45v0h8.05c2.367 0 4.467-0.667 6.3-2v0c1.067 0.9 1.6 2.083 1.6 3.55 0 1.467-0.533 2.64-1.6 3.52-1.067 0.887-2.667 1.33-4.8 1.33v0h-10.85c-3.333 0-5.777-0.717-7.33-2.15-1.547-1.433-2.32-3.7-2.32-6.8v0-22.2c0-1.7-0.567-2.85-1.7-3.45v0c1.233-1.467 2.75-2.2 4.55-2.2v0h16.7c2.633 0 4.517 0.343 5.65 1.03 1.133 0.68 1.7 1.687 1.7 3.02 0 1.333-0.533 2.45-1.6 3.35v0c-1.6-0.633-3.7-0.95-6.3-0.95v0h-11.15v7.5h6.9c2.667 0 4.557 0.283 5.67 0.85 1.12 0.567 1.68 1.523 1.68 2.87 0 1.353-0.533 2.447-1.6 3.28v0c-1.2-0.4-3.3-0.6-6.3-0.6v0h-6.35v6.5c0 2.367 1.033 3.55 3.1 3.55zM270.35 34.45v0h8.05c2.367 0 4.467-0.667 6.3-2v0c1.067 0.9 1.6 2.083 1.6 3.55 0 1.467-0.533 2.64-1.6 3.52-1.067 0.887-2.667 1.33-4.8 1.33v0h-10.85c-3.333 0-5.773-0.717-7.32-2.15-1.553-1.433-2.33-3.7-2.33-6.8v0-22.2c0-1.7-0.567-2.85-1.7-3.45v0c1.233-1.467 2.75-2.2 4.55-2.2v0h16.7c2.633 0 4.517 0.343 5.65 1.03 1.133 0.68 1.7 1.687 1.7 3.02 0 1.333-0.533 2.45-1.6 3.35v0c-1.6-0.633-3.7-0.95-6.3-0.95v0h-11.15v7.5h6.9c2.667 0 4.557 0.283 5.67 0.85 1.12 0.567 1.68 1.523 1.68 2.87 0 1.353-0.533 2.447-1.6 3.28v0c-1.2-0.4-3.3-0.6-6.3-0.6v0h-6.35v6.5c0 2.367 1.033 3.55 3.1 3.55z" fill="#0be683" fill-rule="nonzero" stroke="none" stroke-width="1" stroke-linecap="butt" stroke-linejoin="miter" stroke-miterlimit="10" stroke-dasharray="" stroke-dashoffset="0" font-family="none" font-weight="none" font-size="none" text-anchor="none" style="mix-blend-mode: normal" data-fill-palette-color="primary" opacity="1"></path></g></svg></g></svg></g><g transform="matrix(1,0,0,1,0,112.30621461413531)"><svg viewBox="0 0 232.20979199999994 10.49783355694125" height="10.49783355694125" width="232.20979199999994"><g transform="matrix(1,0,0,1,0,0)"><svg width="232.20979199999994" viewBox="-12.649999618530273 -26.950000762939453 609.3600463867188 27.55000114440918" height="10.49783355694125" data-palette-color="#01ff70"><path d="M33.25-10.75L28.75 0 22.15 0 21.4-10.75 21.15-10.75 18.75 0 10.2 0 16.25-26.45 27.1-26.45 27.85-14.05 28.05-14.05 33.1-26.45 43.95-26.45 40.75 0 32.15 0 33.5-10.75 33.25-10.75ZM9.05-2.4L8.55-0.15-12.65-2.4 9.05-2.4ZM10.2-7.25L9.65-5-11.5-7.25 10.2-7.25ZM11.3-12.05L10.8-9.8-10.35-12.05 11.3-12.05ZM12.35-16.85L11.8-14.6-9.2-16.85 12.35-16.85ZM13.45-21.65L12.95-19.4-8.05-21.65 13.45-21.65ZM14.6-26.45L14.05-24.2-6.9-26.45 14.6-26.45ZM80.1 0L71.35 0 71.15-4.05 64.85-4.05 63.3 0 54.65 0 65.75-26.45 78.15-26.45 80.1 0ZM67.5-11.2L71.15-11.2 71.15-18.8 70.45-18.8 67.5-11.2ZM54-2.4L53.05-0.2 32.55-2.4 54-2.4ZM56.05-7.25L55.1-5.05 34.6-7.25 56.05-7.25ZM58.05-12.05L57.15-9.85 36.65-12.05 58.05-12.05ZM60.1-16.85L59.15-14.65 38.7-16.85 60.1-16.85ZM62.1-21.65L61.2-19.45 40.75-21.65 62.1-21.65ZM64.1-26.45L63.2-24.3 42.8-26.45 64.1-26.45ZM115.45 0L108.65 0 103.5-9.9 103.3-9.9 101.55 0 93.15 0 97.75-26.45 104.55-26.45 109.75-16.6 110.05-16.6 111.75-26.45 120.09-26.45 115.45 0ZM91.9-2.4L91.5-0.15 70.3-2.4 91.9-2.4ZM93.6-12.05L93.2-9.8 72-12.05 93.6-12.05ZM94.45-16.85L94.05-14.6 72.84-16.85 94.45-16.85ZM95.3-21.65L94.9-19.4 73.7-21.65 95.3-21.65ZM96.1-26.45L95.75-24.2 74.55-26.45 96.1-26.45ZM92.75-7.25L92.35-5 71.15-7.25 92.75-7.25ZM145.94-6.2L145.94-6.2 141.09-6.2 139.99 0 131.59 0 136.19-26.45 148.89-26.45Q156.14-26.45 156.14-19.6L156.14-19.6Q156.14-16.5 155.24-13.9 154.34-11.3 153.29-9.8 152.24-8.3 150.32-7.25 148.39-6.2 145.94-6.2ZM146.44-14.4L147.04-17.8Q147.04-17.85 147.09-18.1L147.09-18.1Q147.09-19.15 144.94-19.15L144.94-19.15 143.34-19.15 142.29-12.95 143.84-12.95Q144.99-12.95 145.64-13.23 146.29-13.5 146.44-14.4L146.44-14.4ZM130.34-2.4L129.94-0.15 108.74-2.4 130.34-2.4ZM132.04-12.05L131.64-9.8 110.44-12.05 132.04-12.05ZM132.89-16.85L132.49-14.6 111.29-16.85 132.89-16.85ZM133.74-21.65L133.34-19.4 112.14-21.65 133.74-21.65ZM134.54-26.45L134.19-24.2 112.99-26.45 134.54-26.45ZM131.19-7.25L130.79-5 109.59-7.25 131.19-7.25ZM181.59-26.95L181.59-26.95Q186.99-26.95 189.29-24.88 191.59-22.8 191.59-18.4L191.59-18.4Q191.59-16.25 191.04-13.2L191.04-13.2Q189.79-6 186.64-2.7 183.49 0.6 176.74 0.6L176.74 0.6Q171.44 0.6 169.19-1.48 166.94-3.55 166.94-7.9L166.94-7.9Q166.94-10.15 167.49-13.2L167.49-13.2Q168.74-20.4 171.84-23.68 174.94-26.95 181.59-26.95ZM175.24-7L178.19-7Q179.64-7 180.37-7.35 181.09-7.7 181.34-8.9L181.34-8.9 183.24-19.35 180.19-19.35Q178.79-19.35 178.02-19 177.24-18.65 177.09-17.5L177.09-17.5 175.24-7ZM145.79-12.05L165.74-12.05Q165.54-10.5 165.49-9.95L165.49-9.95 145.79-12.05ZM146.69-16.85L166.69-16.85 166.24-14.75 146.69-16.85ZM145.99-7.25L165.44-7.25Q165.44-6.45 165.64-5.15L165.64-5.15 145.99-7.25ZM148.69-21.65L168.44-21.65Q167.84-20.35 167.59-19.65L167.59-19.65 148.69-21.65ZM150.34-2.4L166.49-2.4Q167.09-1.2 167.79-0.55L167.79-0.55 150.34-2.4ZM155.39-26.45L172.79-26.45Q171.59-25.75 170.74-24.8L170.74-24.8 155.39-26.45ZM218.09 0L206.74 0 206.74-26.45 215.84-26.45 215.84-12.15 216.09-12.15 221.69-26.45 229.29-26.45 229.29-12.15 229.49-12.15 234.09-26.45 243.64-26.45 233.89 0 223.04 0 222.29-9.35 221.94-9.35 218.09 0ZM185.44-26.45L205.09-26.45 205.09-24.2 185.44-26.45ZM185.44-21.65L205.09-21.65 205.09-19.4 185.44-21.65ZM185.44-16.85L205.09-16.85 205.09-14.6 185.44-16.85ZM185.44-12.05L205.09-12.05 205.09-9.8 185.44-12.05ZM185.44-7.25L205.09-7.25 205.09-5 185.44-7.25ZM185.44-2.4L205.09-2.4 205.09-0.15 185.44-2.4ZM270.84-15.55L269.99-10.75 262.54-10.75 261.94-7.35 271.19-7.35 269.89 0 252.24 0 256.84-26.45 274.44-26.45 272.09-18.95 263.94-18.95 263.34-15.55 270.84-15.55ZM250.99-2.4L250.59-0.15 229.39-2.4 250.99-2.4ZM252.69-12.05L252.29-9.8 231.09-12.05 252.69-12.05ZM253.54-16.85L253.14-14.6 231.94-16.85 253.54-16.85ZM254.39-21.65L253.99-19.4 232.79-21.65 254.39-21.65ZM255.19-26.45L254.84-24.2 233.64-26.45 255.19-26.45ZM251.84-7.25L251.44-5 230.24-7.25 251.84-7.25ZM289.63-26.45L302.33-26.45Q309.63-26.45 309.63-19.85L309.63-19.85Q309.63-16.85 308.43-13.63 307.23-10.4 304.38-8.8L304.38-8.8 307.23 0 297.88 0 295.98-7.7 294.78-7.7 293.43 0 285.03 0 289.63-26.45ZM300.18-16.05L300.48-17.8Q300.48-17.85 300.53-18.3L300.53-18.3Q300.53-19.15 297.88-19.15L297.88-19.15 296.78-19.15 295.98-14.55 297.58-14.55Q299.88-14.55 300.18-16.05L300.18-16.05ZM283.78-2.4L283.38-0.15 262.18-2.4 283.78-2.4ZM285.48-12.05L285.08-9.8 263.88-12.05 285.48-12.05ZM286.33-16.85L285.93-14.6 264.73-16.85 286.33-16.85ZM287.18-21.65L286.78-19.4 265.58-21.65 287.18-21.65ZM287.98-26.45L287.63-24.2 266.43-26.45 287.98-26.45ZM284.63-7.25L284.23-5 263.03-7.25 284.63-7.25ZM349.68-15.55L348.83-10.75 341.38-10.75 340.78-7.35 350.03-7.35 348.73 0 331.08 0 335.68-26.45 353.28-26.45 350.93-18.95 342.78-18.95 342.18-15.55 349.68-15.55ZM329.83-2.4L329.43-0.15 308.23-2.4 329.83-2.4ZM331.53-12.05L331.13-9.8 309.93-12.05 331.53-12.05ZM332.38-16.85L331.98-14.6 310.78-16.85 332.38-16.85ZM333.23-21.65L332.83-19.4 311.63-21.65 333.23-21.65ZM334.03-26.45L333.68-24.2 312.48-26.45 334.03-26.45ZM330.68-7.25L330.28-5 309.08-7.25 330.68-7.25ZM386.93-10.75L382.43 0 375.83 0 375.08-10.75 374.83-10.75 372.43 0 363.88 0 369.93-26.45 380.78-26.45 381.53-14.05 381.73-14.05 386.78-26.45 397.63-26.45 394.43 0 385.83 0 387.18-10.75 386.93-10.75ZM362.73-2.4L362.23-0.15 341.03-2.4 362.73-2.4ZM363.88-7.25L363.33-5 342.18-7.25 363.88-7.25ZM364.98-12.05L364.48-9.8 343.33-12.05 364.98-12.05ZM366.03-16.85L365.48-14.6 344.48-16.85 366.03-16.85ZM367.13-21.65L366.63-19.4 345.63-21.65 367.13-21.65ZM368.28-26.45L367.73-24.2 346.78-26.45 368.28-26.45ZM423.27-6.2L423.27-6.2 418.42-6.2 417.32 0 408.92 0 413.52-26.45 426.22-26.45Q433.47-26.45 433.47-19.6L433.47-19.6Q433.47-16.5 432.57-13.9 431.67-11.3 430.62-9.8 429.57-8.3 427.65-7.25 425.72-6.2 423.27-6.2ZM423.77-14.4L424.37-17.8Q424.37-17.85 424.42-18.1L424.42-18.1Q424.42-19.15 422.27-19.15L422.27-19.15 420.67-19.15 419.62-12.95 421.17-12.95Q422.32-12.95 422.97-13.23 423.62-13.5 423.77-14.4L423.77-14.4ZM407.67-2.4L407.27-0.15 386.07-2.4 407.67-2.4ZM409.37-12.05L408.97-9.8 387.77-12.05 409.37-12.05ZM410.22-16.85L409.82-14.6 388.62-16.85 410.22-16.85ZM411.07-21.65L410.67-19.4 389.47-21.65 411.07-21.65ZM411.87-26.45L411.52-24.2 390.32-26.45 411.87-26.45ZM408.52-7.25L408.12-5 386.92-7.25 408.52-7.25ZM461.22-7.35L459.92 0 443.67 0 448.27-26.45 457.07-26.45 453.72-7.35 461.22-7.35ZM442.42-2.4L442.02-0.15 420.82-2.4 442.42-2.4ZM444.12-12.05L443.72-9.8 422.52-12.05 444.12-12.05ZM444.97-16.85L444.57-14.6 423.37-16.85 444.97-16.85ZM445.82-21.65L445.42-19.4 424.22-21.65 445.82-21.65ZM446.62-26.45L446.27-24.2 425.07-26.45 446.62-26.45ZM443.27-7.25L442.87-5 421.67-7.25 443.27-7.25ZM487.27-26.95L487.27-26.95Q492.67-26.95 494.97-24.88 497.27-22.8 497.27-18.4L497.27-18.4Q497.27-16.25 496.72-13.2L496.72-13.2Q495.47-6 492.32-2.7 489.17 0.6 482.42 0.6L482.42 0.6Q477.12 0.6 474.87-1.48 472.62-3.55 472.62-7.9L472.62-7.9Q472.62-10.15 473.17-13.2L473.17-13.2Q474.42-20.4 477.52-23.68 480.62-26.95 487.27-26.95ZM480.92-7L483.87-7Q485.32-7 486.04-7.35 486.77-7.7 487.02-8.9L487.02-8.9 488.92-19.35 485.87-19.35Q484.47-19.35 483.69-19 482.92-18.65 482.77-17.5L482.77-17.5 480.92-7ZM451.47-12.05L471.42-12.05Q471.22-10.5 471.17-9.95L471.17-9.95 451.47-12.05ZM452.37-16.85L472.37-16.85 471.92-14.75 452.37-16.85ZM451.67-7.25L471.12-7.25Q471.12-6.45 471.32-5.15L471.32-5.15 451.67-7.25ZM454.37-21.65L474.12-21.65Q473.52-20.35 473.27-19.65L473.27-19.65 454.37-21.65ZM456.02-2.4L472.17-2.4Q472.77-1.2 473.47-0.55L473.47-0.55 456.02-2.4ZM461.07-26.45L478.47-26.45Q477.27-25.75 476.42-24.8L476.42-24.8 461.07-26.45ZM511.87-2.4L511.47-0.15 490.27-2.4 511.87-2.4ZM512.72-7.25L512.32-5 491.12-7.25 512.72-7.25ZM509.87-21.65L510.32-19.4 489.12-21.65 509.87-21.65ZM508.87-26.45L509.32-24.2 488.12-26.45 508.87-26.45ZM510.87-16.85L511.32-14.6 490.12-16.85 510.87-16.85ZM511.82-12.05L512.32-9.8 491.12-12.05 511.82-12.05ZM510.37-26.45L518.97-26.45 520.07-16.85 520.37-16.85 524.52-26.45 533.27-26.45 522.67-7.55 521.42 0 512.97 0 514.27-7.55 510.37-26.45ZM560.31-15.55L559.46-10.75 552.01-10.75 551.41-7.35 560.66-7.35 559.36 0 541.71 0 546.31-26.45 563.91-26.45 561.56-18.95 553.41-18.95 552.81-15.55 560.31-15.55ZM540.46-2.4L540.06-0.15 518.86-2.4 540.46-2.4ZM542.16-12.05L541.76-9.8 520.56-12.05 542.16-12.05ZM543.01-16.85L542.61-14.6 521.41-16.85 543.01-16.85ZM543.86-21.65L543.46-19.4 522.26-21.65 543.86-21.65ZM544.66-26.45L544.31-24.2 523.11-26.45 544.66-26.45ZM541.31-7.25L540.91-5 519.71-7.25 541.31-7.25ZM593.11-15.55L592.26-10.75 584.81-10.75 584.21-7.35 593.46-7.35 592.16 0 574.51 0 579.11-26.45 596.71-26.45 594.36-18.95 586.21-18.95 585.61-15.55 593.11-15.55ZM573.26-2.4L572.86-0.15 551.66-2.4 573.26-2.4ZM574.96-12.05L574.56-9.8 553.36-12.05 574.96-12.05ZM575.81-16.85L575.41-14.6 554.21-16.85 575.81-16.85ZM576.66-21.65L576.26-19.4 555.06-21.65 576.66-21.65ZM577.46-26.45L577.11-24.2 555.91-26.45 577.46-26.45ZM574.11-7.25L573.71-5 552.51-7.25 574.11-7.25Z" opacity="1" transform="matrix(1,0,0,1,0,0)" fill="#01ff70" class="undefined-text-1" data-fill-palette-color="secondary" id="text-1"></path></svg></g></svg></g></svg></g></svg></g><g transform="matrix(1,0,0,1,0,0.30701012042768383)"><svg viewBox="0 0 136.01555205487333 122.80404817107656" height="122.80404817107656" width="136.01555205487333"><g><svg xmlns="http://www.w3.org/2000/svg" xmlns:xlink="http://www.w3.org/1999/xlink" version="1.1" x="0" y="0" viewBox="5 9.370002746582031 90.0009994506836 81.25899505615234" enable-background="new 0 0 100 100" xml:space="preserve" height="122.80404817107656" width="136.01555205487333" class="icon-icon-0" data-fill-palette-color="accent" id="icon-0"><g fill="#01ff70" data-fill-palette-color="accent"><path fill="none" d="M78.504 66.677c-1.326 0.522-0.697 4.249-0.697 4.249-0.331-0.23-0.635-0.352-0.882-0.413 0.364 3.96 2.687 7.013 5.497 7.013 2.812 0 5.134-3.053 5.497-7.013-0.246 0.062-0.55 0.183-0.881 0.413 0 0 0.628-3.727-0.697-4.249 0 0-1.828 0.888-3.919 0.945C80.332 67.564 78.504 66.677 78.504 66.677z"></path><path fill="none" d="M17.735 77.525c2.812 0 5.133-3.053 5.498-7.013-0.247 0.062-0.551 0.182-0.882 0.413 0-0.001 0.628-3.727-0.697-4.249 0 0-1.829 0.888-3.919 0.944-2.09-0.057-3.919-0.944-3.919-0.944-1.325 0.522-0.697 4.248-0.697 4.249-0.331-0.231-0.634-0.352-0.882-0.413C12.602 74.473 14.924 77.525 17.735 77.525z"></path><path fill="none" d="M50.079 24.317c2.811 0 5.132-3.053 5.497-7.014-0.247 0.062-0.55 0.182-0.881 0.413 0 0 0.628-3.726-0.697-4.249 0 0-1.828 0.888-3.918 0.945-2.09-0.057-3.919-0.945-3.919-0.945-1.325 0.523-0.698 4.249-0.698 4.249-0.331-0.231-0.634-0.351-0.881-0.413C44.945 21.264 47.268 24.317 50.079 24.317z"></path><path d="M11.454 70.282c0.005 0.06 0.01 0.119 0.016 0.179 0.4 4.533 3.053 8.036 6.265 8.036 3.212 0 5.865-3.503 6.265-8.036 0.006-0.06 0.011-0.119 0.015-0.179 0.029-0.196 0.048-0.396 0.06-0.598 0.008-0.139 0.013-0.276 0.013-0.417 0-0.345-0.025-0.684-0.073-1.015-0.464-3.212-3.099-5.673-6.28-5.673-3.181 0-5.816 2.461-6.281 5.673-0.047 0.331-0.072 0.67-0.072 1.015 0 0.141 0.005 0.278 0.013 0.417C11.407 69.887 11.426 70.086 11.454 70.282zM13.816 66.677c0 0 1.829 0.888 3.919 0.944 2.09-0.057 3.919-0.944 3.919-0.944 1.325 0.522 0.697 4.248 0.697 4.249 0.331-0.231 0.635-0.352 0.882-0.413-0.365 3.96-2.686 7.013-5.498 7.013-2.811 0-5.133-3.053-5.498-7.013 0.248 0.062 0.551 0.182 0.882 0.413C13.119 70.925 12.491 67.199 13.816 66.677z" fill="#01ff70" data-fill-palette-color="accent"></path><path d="M23.235 77.672c-0.014-0.001-0.03-0.002-0.044-0.005-0.117-0.015-0.234-0.029-0.354-0.04 0 0.012-0.003 0.024-0.004 0.036-0.002 0.035-0.008 0.068-0.012 0.104-0.022 0.196-0.081 0.388-0.173 0.571-0.617 1.555-2.616 4.502-3.792 6.175l-0.243-3.476c0.344-0.177 0.639-0.468 0.829-0.807 0.137-0.243 0.22-0.509 0.22-0.779 0 0-0.878 0.389-1.774 0.389-0.051 0-0.102-0.002-0.153-0.004-0.051 0.002-0.102 0.004-0.153 0.004-0.896 0-1.774-0.389-1.774-0.389 0 0.271 0.083 0.536 0.22 0.779 0.189 0.339 0.485 0.63 0.829 0.807l-0.243 3.476c-1.177-1.673-3.175-4.62-3.792-6.175-0.092-0.184-0.151-0.375-0.173-0.571-0.004-0.035-0.01-0.068-0.012-0.104 0-0.012-0.003-0.024-0.004-0.036-0.119 0.011-0.236 0.025-0.354 0.04-0.014 0.003-0.029 0.004-0.044 0.005C8.146 78.241 5 81.751 5 85.997c0 4.643 3.764 4.631 8.406 4.631h4.329 4.329c4.643 0 8.406 0.012 8.406-4.631C30.47 81.751 27.323 78.241 23.235 77.672z" fill="#01ff70" data-fill-palette-color="accent"></path><path d="M45.803 37.419h8.55c4.586 0 8.303 0.012 8.303-4.574 0-4.327-3.311-7.881-7.538-8.268-0.033 1.514-2.276 2.736-5.04 2.736-2.764 0-5.007-1.222-5.04-2.736-4.228 0.386-7.539 3.94-7.539 8.268C37.5 37.431 41.218 37.419 45.803 37.419z" fill="#01ff70" data-fill-palette-color="accent"></path><path d="M43.798 17.073c0.004 0.06 0.01 0.119 0.015 0.179 0.401 4.533 3.053 8.036 6.266 8.036 3.211 0 5.865-3.502 6.265-8.036 0.006-0.06 0.011-0.119 0.016-0.179 0.028-0.197 0.047-0.396 0.059-0.598 0.008-0.138 0.014-0.277 0.014-0.417 0-0.345-0.025-0.684-0.072-1.015-0.465-3.212-3.1-5.673-6.281-5.673s-5.816 2.461-6.281 5.673c-0.048 0.331-0.072 0.67-0.072 1.015 0 0.14 0.005 0.279 0.013 0.417C43.75 16.677 43.77 16.876 43.798 17.073zM46.16 13.467c0 0 1.829 0.888 3.919 0.945 2.09-0.057 3.918-0.945 3.918-0.945 1.325 0.523 0.697 4.249 0.697 4.249 0.331-0.231 0.634-0.351 0.881-0.413-0.364 3.96-2.686 7.014-5.497 7.014s-5.133-3.053-5.498-7.014c0.247 0.062 0.551 0.182 0.881 0.413C45.462 17.716 44.834 13.99 46.16 13.467z" fill="#01ff70" data-fill-palette-color="accent"></path><path d="M87.462 77.787c-0.033 1.514-2.276 2.735-5.04 2.735s-5.006-1.222-5.039-2.735c-4.228 0.387-7.539 3.939-7.539 8.268 0 4.586 3.718 4.574 8.303 4.574h8.551c4.586 0 8.303 0.012 8.303-4.574C95 81.727 91.689 78.174 87.462 77.787z" fill="#01ff70" data-fill-palette-color="accent"></path><path d="M76.142 68.254c-0.048 0.33-0.073 0.67-0.073 1.014 0 0.141 0.006 0.279 0.014 0.417 0.012 0.202 0.03 0.401 0.06 0.598 0.005 0.061 0.01 0.12 0.015 0.18 0.401 4.532 3.053 8.035 6.266 8.035s5.865-3.503 6.266-8.035c0.006-0.06 0.01-0.119 0.016-0.18 0.028-0.196 0.047-0.396 0.059-0.598 0.008-0.138 0.014-0.276 0.014-0.417 0-0.344-0.025-0.684-0.072-1.014-0.465-3.213-3.1-5.674-6.281-5.674C79.241 62.58 76.605 65.041 76.142 68.254zM87.038 70.926c0.331-0.23 0.635-0.352 0.881-0.413-0.363 3.96-2.686 7.013-5.497 7.013-2.811 0-5.133-3.053-5.497-7.013 0.247 0.062 0.551 0.183 0.882 0.413 0 0-0.629-3.727 0.697-4.249 0 0 1.828 0.888 3.918 0.945 2.091-0.058 3.919-0.945 3.919-0.945C87.666 67.199 87.038 70.926 87.038 70.926z" fill="#01ff70" data-fill-palette-color="accent"></path><path fill="#01ff70" d="M17.735 60.71c0.688 0 1.247-0.558 1.247-1.246v-8.103h62.193v8.103c0 0.688 0.559 1.246 1.247 1.246s1.246-0.558 1.246-1.246v-9.347c0-0.001 0.001-0.002 0.001-0.003 0-0.688-0.559-1.247-1.247-1.247H51.325v-8.332c0-0.688-0.559-1.247-1.247-1.247s-1.247 0.558-1.247 1.247v8.332H17.735c-0.688 0-1.247 0.558-1.247 1.247v9.35C16.488 60.152 17.046 60.71 17.735 60.71z" data-fill-palette-color="accent"></path></g></svg></g></svg></g></svg></g><defs></defs></svg><rect width="395.52" height="87.4951368986407" fill="none" stroke="none" visibility="hidden"></rect></g></svg></g></svg>